<svg xmlns="http://www.w3.org/2000/svg" width="254" height="152.311" viewBox="0 0 254 152.311">
  <g id="Grupo_14" data-name="Grupo 14" transform="translate(-175.223 -101.761)">
    <g id="Grupo_13" data-name="Grupo 13" transform="translate(175.223 101.761)">
      <g id="Grupo_7" data-name="Grupo 7" transform="translate(185.094 43.063)">
        <path id="Trazado_6" data-name="Trazado 6" d="M627.8,213.046c.356-1.71.649-3.371.87-4.941.173-.321.322-.606.445-.854l.172-.342v-.022c0-.017.019-.034.029-.052l.1-.159.061-.178a17.006,17.006,0,0,0,.854-3.745,4.593,4.593,0,0,0-1.29-4.224l-1.327-1.325-2.1.175-.553.075c-1.428-.333-3.055.289-4.936,1.932a6.6,6.6,0,0,0-1.047.914c-.238.179-.437.333-.6.46a43.02,43.02,0,0,0-3.514,2.77,118.112,118.112,0,0,0-8.368,8.422l-.05.057a45.169,45.169,0,0,0-4.568,6.538l-.038.073c-.456.914-.865,1.847-1.217,2.775a8.775,8.775,0,0,0-.792,3.291,10.043,10.043,0,0,0,.327,3.032l.789,3.115,1.976-1.571a6.9,6.9,0,0,0,1.308-1.627,19.647,19.647,0,0,1,1.553-2.123,44.687,44.687,0,0,1,6.388-6.12c0,.047-.008.094-.012.142-.217,1.741-.515,3.8-.883,6.131-.359,2.231-.821,4.618-1.381,7.123a104.982,104.982,0,0,1-5.41,18.839c-.565,1.272-1.2,2.624-1.919,4.114-.6,1.191-.966,1.951-1.1,2.258l-1.3,3.034,3.2-.751a1.966,1.966,0,0,1,.492,0h.3l.28-.165a13.108,13.108,0,0,0,3.572-2.13l.058-.064a23.651,23.651,0,0,0,3.21-3.567,31.455,31.455,0,0,0,2.781-4.059,81.462,81.462,0,0,0,5.645-11.522c2.607-6.81,4.705-13.068,6.234-18.592C626.722,217.779,627.312,215.379,627.8,213.046Z" transform="translate(-599.93 -197.204)" fill="#3c4876"/>
      </g>
      <path id="Trazado_7" data-name="Trazado 7" d="M247.231,253.108a23.2,23.2,0,1,1,23.04-25.91c2.438-1.184,4.742-2.357,6.863-3.477a30.4,30.4,0,1,0-.139,12.7c-2.8.287-5.39.468-7.668.571A23.208,23.208,0,0,1,247.231,253.108Z" transform="translate(-204.667 -155.338)" fill="#3c4876"/>
      <path id="Trazado_8" data-name="Trazado 8" d="M322.508,154.361c-4.285,2.249-9.822,7.768-8.668,14.035.82,4.443,4.156,6.242,8.937,9.164,5.806,3.552,23.029,14.176,23.029,14.176a302.086,302.086,0,0,1-34.818,16.93,170.4,170.4,0,0,0,36.968-5.037c4.776-1.269,10.5-3.766,12.624-10.046,1.06-4.006-.151-8.992-5.766-14.1a127.467,127.467,0,0,0-17.144-13.534c1.858-1.543,10.329-8.561,22.653-7.081C360.323,158.873,340.331,146.113,322.508,154.361Z" transform="translate(-256.261 -129.105)" fill="#3c4876" fill-rule="evenodd"/>
      <path id="Trazado_9" data-name="Trazado 9" d="M423.221,139.926" transform="translate(-317.856 -122.706)" fill="#cc3d81"/>
      <g id="Grupo_10" data-name="Grupo 10" transform="translate(193.314 113.334)">
        <g id="Grupo_9" data-name="Grupo 9">
          <g id="Grupo_8" data-name="Grupo 8">
            <path id="Trazado_10" data-name="Trazado 10" d="M649.4,387.661l-.021.342c-7.412,1.085-15.536-1.552-17.576-4.347v4.523H618.149v-35.14c10.926-.56,18.25,1.557,23.393,7.183l-2.8,1.687c-5.757-5.294-10.361-5.792-17.424-5.49v28.551h7.1v-10.3c4.268,9.989,14.087,13.149,20.981,12.99" transform="translate(-618.149 -352.952)" fill="#5a78b4" fill-rule="evenodd"/>
            <path id="Trazado_11" data-name="Trazado 11" d="M683.328,353.547l.032-.335c7.412-1.089,15.537,1.555,17.577,4.353v-4.524h13.656v35.122c-10.927.57-18.25-1.539-23.388-7.167l2.787-1.688c5.767,5.287,10.361,5.787,17.431,5.492V356.24h-7.1v10.307c-4.283-10-14.1-13.149-20.994-13" transform="translate(-653.92 -352.957)" fill="#5a78b4" fill-rule="evenodd"/>
            <path id="Trazado_12" data-name="Trazado 12" d="M668.544,364.565a16.232,16.232,0,0,1,13.318,6.742l-3.112,1.979c-2.031-2.906-6.164-4.9-10.329-4.9-5.921.181-10.466,3.541-10.466,8.57s4.7,8.245,11,8.245a11.874,11.874,0,0,0,10.1-4.857L682.162,382a15.191,15.191,0,0,1-13.276,7.11c-8.64,0-15.039-5.293-15.039-12.193s6.057-12.351,14.7-12.351" transform="translate(-637.74 -359.326)" fill="#9fc042" fill-rule="evenodd"/>
          </g>
        </g>
      </g>
      <g id="Grupo_11" data-name="Grupo 11" transform="translate(12.561 111.907)">
        <path id="Trazado_13" data-name="Trazado 13" d="M253.241,366.934a3.078,3.078,0,0,1-1.15,1.113,2.363,2.363,0,0,1-2.471-.073,2.225,2.225,0,0,1-.834-.906,16.166,16.166,0,0,0-4.281-.319,25.534,25.534,0,0,0-5.118.759,37.717,37.717,0,0,0-5.328,1.768,26.776,26.776,0,0,0-4.912,2.639,18.928,18.928,0,0,0-3.834,3.441,10.305,10.305,0,0,0-2.163,4.14q-.772,3.063.306,4.6a5.717,5.717,0,0,0,3.06,2.162,13.349,13.349,0,0,0,4.42.564q2.436-.066,4.386-.2a80.576,80.576,0,0,0,11.629-1.654q5.71-1.246,11.351-2.839a2.813,2.813,0,0,1,2.088.351,2.35,2.35,0,0,1,1.043,1.428,2.551,2.551,0,0,1-.246,1.775,2.758,2.758,0,0,1-1.707,1.32q-3.971,1.109-8.044,2.043t-8.252,1.625q-2.3.346-5.467.689a45.509,45.509,0,0,1-6.439.234,28.365,28.365,0,0,1-6.23-.879,10.349,10.349,0,0,1-4.835-2.652,8.872,8.872,0,0,1-2.637-5.678,11.4,11.4,0,0,1,2.1-7.272,23.914,23.914,0,0,1,4.288-5.076,32.735,32.735,0,0,1,5.471-4,31.288,31.288,0,0,1,6.165-2.741,35.964,35.964,0,0,1,6.512-1.453q.835-.068,2.68-.206a22.841,22.841,0,0,1,3.759.04,11.252,11.252,0,0,1,3.444.841,2.5,2.5,0,0,1,1.668,2.125,5.132,5.132,0,0,1,0,1.183A2.744,2.744,0,0,1,253.241,366.934Z" transform="translate(-217.533 -356.256)" fill="#3c4876"/>
        <path id="Trazado_14" data-name="Trazado 14" d="M318.757,356.625a2.544,2.544,0,0,1,.85-1.948,2.508,2.508,0,0,1,3.318,0,2.543,2.543,0,0,1,.845,1.951q.128,7.868.988,15.6t1.893,15.6a2.952,2.952,0,0,1-.56,2.087,2.4,2.4,0,0,1-1.5.9,2.459,2.459,0,0,1-1.717-.385,2.887,2.887,0,0,1-1.2-1.778q-1.119-8.006-1.956-15.945T318.757,356.625Z" transform="translate(-273.086 -352.128)" fill="#3c4876"/>
        <path id="Trazado_15" data-name="Trazado 15" d="M354.919,366.85q.974-.068,2.089-.136a12.813,12.813,0,0,1,2.3.073,11.645,11.645,0,0,0,.176-1.392q.036-.626.107-1.392a2.733,2.733,0,0,1,.7-1.775,2.542,2.542,0,0,1,1.393-.8,2.3,2.3,0,0,1,1.565.316,3.2,3.2,0,0,1,1.286,1.5,36.47,36.47,0,0,1,1.141,5.292q.38,2.717.689,5.467t.689,5.536q.378,2.786,1,5.431v.069a2.707,2.707,0,0,1,1.461,1.6,2.767,2.767,0,0,1-.107,1.88,2.738,2.738,0,0,1-1.36,1.39,3.2,3.2,0,0,1-2.3.136,7.029,7.029,0,0,1-1.98-2.508,17.978,17.978,0,0,1-1.317-3.692,40.456,40.456,0,0,1-.83-4.421q-.31-2.333-.516-4.7a19.574,19.574,0,0,1-4.531,4.659q-2.718,2.015-5.923,4.029a7.78,7.78,0,0,1-4.213,1.282,6.568,6.568,0,0,1-3.585-1.049,5.986,5.986,0,0,1-2.259-2.753,6.091,6.091,0,0,1-.238-3.83,9.223,9.223,0,0,1,2.025-4.1A15.723,15.723,0,0,1,346,369.831a19.6,19.6,0,0,1,4.459-2.082A18.544,18.544,0,0,1,354.919,366.85Zm-9.625,12.8a6.553,6.553,0,0,0,3.1-.517,16.5,16.5,0,0,0,3.24-1.771,19.541,19.541,0,0,0,3-2.571,27.142,27.142,0,0,0,2.44-2.92,17.8,17.8,0,0,0-4.038.481,14.018,14.018,0,0,0-3.8,1.456,9.289,9.289,0,0,0-2.823,2.433A5.466,5.466,0,0,0,345.295,379.646Zm9.716-28.877a2.985,2.985,0,0,1,1.882-.972,2.414,2.414,0,0,1,1.67.455,2.3,2.3,0,0,1,.868,1.5,2.948,2.948,0,0,1-.524,2.088q-1.256,1.948-2.546,3.9t-2.825,3.825a2.959,2.959,0,0,1-1.811.693,2.413,2.413,0,0,1-1.53-.489,2.513,2.513,0,0,1-.869-1.359,2.712,2.712,0,0,1,.246-1.913q1.534-1.878,2.825-3.825T355.011,350.768Z" transform="translate(-284.831 -349.788)" fill="#3c4876"/>
        <path id="Trazado_16" data-name="Trazado 16" d="M428.334,383.144a2.9,2.9,0,0,1,.413,2.715,4.178,4.178,0,0,1-1.534,2.121,2.825,2.825,0,0,1-2.263.485q-1.218-.244-1.773-2.126a15.5,15.5,0,0,0-5.5-.46,13.025,13.025,0,0,0-5.5,1.628,9.278,9.278,0,0,0,3.442,2.476,34.045,34.045,0,0,0,4.349,1.5q2.3.629,4.558,1.224a18.419,18.419,0,0,1,4.07,1.572,5.635,5.635,0,0,1,1.635,1.36,4.246,4.246,0,0,1,.938,1.951,4.12,4.12,0,0,1-.212,2.227,4.727,4.727,0,0,1-1.743,2.122,11.3,11.3,0,0,1-3,1.353,23.418,23.418,0,0,1-4.109.864,42.528,42.528,0,0,1-4.63.307,25.1,25.1,0,0,1-4.49-.319,14.683,14.683,0,0,1-3.688-1.085,4.637,4.637,0,0,1-2.226-1.848,5.414,5.414,0,0,1-.59-1.323,7.55,7.55,0,0,1-.172-1.88,2.986,2.986,0,0,1,.629-1.949,3.212,3.212,0,0,1,1.43-1.042,2.482,2.482,0,0,1,1.636,0,2.628,2.628,0,0,1,1.39,1.185,7.022,7.022,0,0,1,.068.976,1.6,1.6,0,0,0,.208.836,4.178,4.178,0,0,0,2.47,1.186,19.966,19.966,0,0,0,3.863.354,25.3,25.3,0,0,0,4.038-.309,13.165,13.165,0,0,0,2.925-.727,27.99,27.99,0,0,0-4.419-1.572,36.007,36.007,0,0,1-4.488-1.5q-1.044-.419-2.922-1.362a23.174,23.174,0,0,1-3.548-2.2,9.06,9.06,0,0,1-2.537-2.824,3.2,3.2,0,0,1,.109-3.307,5.9,5.9,0,0,1,2.231-1.946,17.631,17.631,0,0,1,3.761-1.526,33.843,33.843,0,0,1,4.527-.968,25.441,25.441,0,0,1,4.525-.272,13.956,13.956,0,0,1,3.793.6A4.4,4.4,0,0,1,428.334,383.144Z" transform="translate(-321.138 -366.937)" fill="#3c4876"/>
        <path id="Trazado_17" data-name="Trazado 17" d="M469.462,377.161a2.7,2.7,0,0,1-1.878-.63,2.649,2.649,0,0,1-.868-1.428,2.315,2.315,0,0,1,.246-1.6,2.4,2.4,0,0,1,1.394-1.146,2.6,2.6,0,0,1,2.366-.1,2.344,2.344,0,0,1,1.146,1.534,2.838,2.838,0,0,1-.316,2.053A2.748,2.748,0,0,1,469.462,377.161Zm-2.3,5.287a2.467,2.467,0,0,1,4.11-1.944,2.772,2.772,0,0,1,.9,1.951l.817,13.506a2.983,2.983,0,0,1-.977,1.67,2.35,2.35,0,0,1-1.5.555,2.494,2.494,0,0,1-1.531-.559,2.889,2.889,0,0,1-1.007-1.672Z" transform="translate(-354.259 -361.987)" fill="#3c4876"/>
        <path id="Trazado_18" data-name="Trazado 18" d="M508.85,390.2a2.129,2.129,0,0,1,1.738,1.813,3.631,3.631,0,0,1-.6,2.436,3.556,3.556,0,0,1-1.916,1.494,1.983,1.983,0,0,1-2.227-.943,25.784,25.784,0,0,0-4.317.412,28.364,28.364,0,0,0-4.7,1.211,16.8,16.8,0,0,0-3.936,1.944,4.513,4.513,0,0,0-2.023,2.678,24.487,24.487,0,0,0,5.394.981,44.6,44.6,0,0,0,5.848.043q2.958-.169,5.848-.584t5.466-.828a2.844,2.844,0,0,1,2.122.351,2.39,2.39,0,0,1,1.007,1.429,2.548,2.548,0,0,1-.245,1.775,2.76,2.76,0,0,1-1.708,1.321q-3.483.554-7,.9t-7.136.477q-1.113.07-2.993,0t-3.9-.354a24.584,24.584,0,0,1-3.933-.876,8,8,0,0,1-3.061-1.64,3.872,3.872,0,0,1-1.284-2.613,6.123,6.123,0,0,1,1.4-3.792,14.9,14.9,0,0,1,4.252-4,23.475,23.475,0,0,1,5.572-2.569,27.68,27.68,0,0,1,6.2-1.175A31.671,31.671,0,0,1,508.85,390.2Z" transform="translate(-364.482 -371.85)" fill="#3c4876"/>
        <path id="Trazado_19" data-name="Trazado 19" d="M556.32,396.7a11.134,11.134,0,0,1,3.972-2.918,2.774,2.774,0,0,1,1.569-1.843,5.406,5.406,0,0,1,2.472-.658,8.856,8.856,0,0,1,2.436.386,12.447,12.447,0,0,1,2.574,1.083,16.334,16.334,0,0,1,2.33,1.57,6.671,6.671,0,0,1,1.633,1.847,7.626,7.626,0,0,1,1.178,3.935,4.876,4.876,0,0,1-1.048,2.923,7.368,7.368,0,0,1-2.684,2.015,16.787,16.787,0,0,1-3.691,1.213,23.355,23.355,0,0,1-4.038.482,23.646,23.646,0,0,1-3.724-.144,6.573,6.573,0,0,1-3.3-1.258,4.732,4.732,0,0,1-1.633-2.334,5.205,5.205,0,0,1,.074-3.029A8.767,8.767,0,0,1,556.32,396.7Zm6.537,5.022q.9-.068,2.472-.241a10.061,10.061,0,0,0,2.681-.622q1.114-.451,1.22-1.287t-1.981-2.161h-.07q-1.812.207-3.1.449a9.132,9.132,0,0,0-2.4.8,5.666,5.666,0,0,0-1.812,1.321q-.489.625-.28,1.044a1.5,1.5,0,0,0,1.044.628A6.733,6.733,0,0,0,562.857,401.717Z" transform="translate(-402.284 -372.557)" fill="#3c4876"/>
      </g>
      <path id="Trazado_20" data-name="Trazado 20" d="M307.3,116.025h0l-3.694-.954-3.754-.789-3.791-.606-3.814-.448-3.831-.3-3.839-.159c-1.281-.016-2.561-.02-3.842,0l-3.838.122-3.833.22-3.826.306-3.819.379-3.812.437-7.614.871-7.594.924h0l-.008.076.026.3,7.609-.429,7.611-.393,7.612-.314,7.614-.2,7.617-.035,7.616.151,7.607.4,7.6.559.008-.105Z" transform="translate(-220.807 -107.796)" fill="#ebd55f"/>
      <path id="Trazado_21" data-name="Trazado 21" d="M277.917,130.849h0v-.194l-3.91-.716-3.882-.488-3.866-.272-3.858-.1-3.85.06-3.841.2c-1.276.105-2.553.22-3.826.356l-3.811.485-3.8.583-3.78.667-3.766.739-3.753.8-7.489,1.664-7.468,1.715h0l-.008,0,.051.254,7.532-1.167,7.538-1.122,7.547-1.041,7.561-.928,7.579-.76,7.6-.573,7.611-.324,7.62.049,0,.108Z" transform="translate(-204.687 -116.754)" fill="#4d6ba6"/>
      <path id="Trazado_22" data-name="Trazado 22" d="M246.547,148.74l-3.811-.422-3.826-.239-3.832-.085-3.833.057-3.829.187q-1.911.143-3.819.327l-3.807.445-3.794.536-3.781.614-3.769.68-3.758.734-7.5,1.533-7.492,1.58.045.244,7.539-1.073,7.544-1.03,7.552-.957,7.563-.852,7.578-.7,7.592-.527,7.6-.3,7.613-.1,0-.045Z" transform="translate(-189.693 -127.134)" fill="#cc3d81"/>
      <g id="Grupo_12" data-name="Grupo 12" transform="translate(127.575)">
        <path id="Trazado_23" data-name="Trazado 23" d="M472.449,115.4a13.527,13.527,0,1,0,13.421-13.634A13.525,13.525,0,0,0,472.449,115.4Z" transform="translate(-472.448 -101.761)" fill="#cc3d81"/>
      </g>
      <path id="Trazado_24" data-name="Trazado 24" d="M428.352,163.133l-25.535-1.32s7.123-7.4,6.176-15.989c-1.961-17.671-37.037-21.471-55.508-7.143,3.585-.987,17.192-3.106,34.222,8.176,2.311.313,5.638.9,7.051,1.926-.927,1.95-5.83,9.806-7.926,12.986-1.878,3.327-.75,9.837,7.166,10.39C402.156,172.728,428.352,163.133,428.352,163.133Z" transform="translate(-279.584 -117.207)" fill="#5a78b4" fill-rule="evenodd"/>
      <path id="Trazado_25" data-name="Trazado 25" d="M493.617,201.87l-9.048,3.314c-.745.272-13.68,4.99-24.277,7.567a30.478,30.478,0,1,0,33.325-10.881Zm-8.67,52.141a22.738,22.738,0,1,1,22.739-22.739A22.738,22.738,0,0,1,484.946,254.011Z" transform="translate(-334.865 -156.702)" fill="#f6e839"/>
    </g>
    <path id="Trazado_26" data-name="Trazado 26" d="M693.537,194.852a6.943,6.943,0,0,1,2.83.615,11.3,11.3,0,0,1,3.621,2.427,17.561,17.561,0,0,1,3.261,4.4A16.38,16.38,0,0,1,705,208.812a27.3,27.3,0,0,1-1.186,9.472,70.681,70.681,0,0,1-4.226,11.072,110.753,110.753,0,0,1-6.214,11.3,84.583,84.583,0,0,1-7.226,9.953,53.316,53.316,0,0,1-7.253,7.175q-3.53,2.8-6.1,3.008a4.768,4.768,0,0,1-3.46-1.212,10.2,10.2,0,0,1-2.57-3.028,6.005,6.005,0,0,1-.834-3.167,1.554,1.554,0,0,1,1.617-1.616,8.137,8.137,0,0,0,3.7-1.459,28.336,28.336,0,0,0,4.307-3.577,63.5,63.5,0,0,0,4.633-5.155q2.355-2.9,4.68-6.193a7.578,7.578,0,0,1-1.265.36,17.524,17.524,0,0,1-3.57-.168,14.111,14.111,0,0,1-4.172-1.219,11.321,11.321,0,0,1-3.572-2.626,6.865,6.865,0,0,1-1.762-4.257,16.141,16.141,0,0,1,.595-4.7,49.345,49.345,0,0,1,2.128-6.572,55.283,55.283,0,0,1,3.5-7.2,44.331,44.331,0,0,1,4.7-6.712,28.514,28.514,0,0,1,5.608-5.1A13.193,13.193,0,0,1,693.537,194.852ZM680.058,230.2a8.025,8.025,0,0,0,4.666-2.312,38,38,0,0,0,4.579-5.021,53.265,53.265,0,0,0,4.042-6.078q1.814-3.182,3.046-5.61a8.685,8.685,0,0,0-.516-5.65q-1.138-2.107-4.479-1.841-.9.072-2.487,2.073a36.1,36.1,0,0,0-3.225,4.978q-1.639,2.977-3.171,6.461a65.412,65.412,0,0,0-2.465,6.405,20.425,20.425,0,0,0-1.04,4.8Q678.9,230.3,680.058,230.2Z" transform="translate(-275.833 -51.085)" fill="#3c4876"/>
  </g>
</svg>
