<?xml version="1.0" encoding="UTF-8"?>
<svg width="158px" height="48px" viewBox="0 0 158 48" version="1.1" xmlns="http://www.w3.org/2000/svg" xmlns:xlink="http://www.w3.org/1999/xlink">
    <!-- Generator: Sketch 50.2 (55047) - http://www.bohemiancoding.com/sketch -->
    <title>logo antena 2+ horizontal</title>
    <desc>Created with Sketch.</desc>
    <defs>
        <polygon id="path-1" points="2.5230901e-05 0.157106935 48.9391187 0.157106935 48.9391187 47.4343922 2.5230901e-05 47.4343922"></polygon>
    </defs>
    <g id="Symbols" stroke="none" stroke-width="1" fill="none" fill-rule="evenodd">
        <g id="Header-dkt" transform="translate(-15.000000, -11.000000)">
            <g id="Header-mbl">
                <g id="logo-antena-2+-horizontal" transform="translate(15.000000, 11.000000)">
                    <g id="logo">
                        <g id="Group-3">
                            <mask id="mask-2" fill="white">
                                <use xlink:href="#path-1"></use>
                            </mask>
                            <g id="Clip-2"></g>
                            <path d="M41.3643229,15.7262984 L42.5412529,15.7262984 C42.6619429,15.7262984 42.7486129,15.6998494 42.8026129,15.6469514 C42.8563429,15.5945824 42.8830729,15.5094167 42.8830729,15.3914543 L42.8830729,13.8291131 L44.4307128,13.8291131 C44.5508628,13.8291131 44.6378028,13.8029286 44.6918028,13.7500307 C44.7452628,13.6976617 44.7722628,13.6122315 44.7722628,13.494269 L44.7722628,12.4344584 C44.7722628,12.316496 44.7452628,12.2310658 44.6918028,12.1786968 C44.6378028,12.1260634 44.5508628,12.0993499 44.4307128,12.0993499 L42.8830729,12.0993499 L42.8830729,10.5375377 C42.8830729,10.4195752 42.8563429,10.334145 42.8026129,10.2812471 C42.7486129,10.2288781 42.6619429,10.2024291 42.5412529,10.2024291 L41.3643229,10.2024291 C41.2441729,10.2024291 41.1569629,10.2288781 41.1032329,10.2812471 C41.0495029,10.334145 41.0227729,10.4195752 41.0227729,10.5375377 L41.0227729,12.0993499 L39.475403,12.0993499 C39.355253,12.0993499 39.267773,12.1260634 39.214313,12.1786968 C39.160583,12.2310658 39.133583,12.316496 39.133583,12.4344584 L39.133583,13.494269 C39.133583,13.6122315 39.160583,13.6976617 39.214313,13.7500307 C39.267773,13.8029286 39.355253,13.8291131 39.475403,13.8291131 L41.0227729,13.8291131 L41.0227729,15.3914543 C41.0227729,15.5094167 41.0495029,15.5945824 41.1032329,15.6469514 C41.1569629,15.6998494 41.2441729,15.7262984 41.3643229,15.7262984 M41.9531929,19.8079048 C38.094893,19.8079048 34.9672131,16.7440551 34.9672131,12.964496 C34.9672131,9.1849369 38.094893,6.12108718 41.9531929,6.12108718 C45.8114928,6.12108718 48.9391727,9.1849369 48.9391727,12.964496 C48.9391727,16.7440551 45.8114928,19.8079048 41.9531929,19.8079048 M32.9716431,41.7267026 C32.0374432,42.1842699 31.6567432,43.2948625 32.1235731,44.2102617 C32.4559431,44.8582617 33.1228431,45.2335727 33.8167431,45.2335727 C34.1002431,45.2335727 34.3891431,45.1730045 34.6591431,45.0407596 L34.6591431,45.0381147 C35.5933431,44.5831923 35.971073,43.4696903 35.5069431,42.5545556 C35.0398431,41.6418013 33.9031431,41.2691352 32.9716431,41.7267026 M32.9335731,5.8486627 C33.2035731,5.9809076 33.4900431,6.04174025 33.7735431,6.04174025 C34.4674431,6.04174025 35.1370431,5.66616475 35.4691431,5.01551987 C35.930843,4.1003852 35.5501431,2.98688319 34.6159431,2.53460565 L34.6159431,2.53196075 C33.6817431,2.07703831 32.5477431,2.45234932 32.0833432,3.36748399 C31.6189432,4.28261866 31.9993732,5.39374027 32.9335731,5.8486627 M25.7491433,43.7394699 C24.7093733,43.8320413 23.9452734,44.7339515 24.0427434,45.7519727 C24.1318434,46.7123351 24.9553433,47.4343922 25.9219433,47.4343922 C25.9786433,47.4343922 26.0377733,47.4317473 26.0944733,47.4264575 C27.1369433,47.3312412 27.9010433,46.429331 27.8065433,45.4107808 C27.7093433,44.3927596 26.7910733,43.6442535 25.7491433,43.7394699 M38.962673,37.285919 C38.260943,38.0423598 38.314943,39.2114047 39.086873,39.901723 C39.448943,40.2244006 39.9052429,40.3830944 40.3585729,40.3830944 C40.8718429,40.3830944 41.3818729,40.1820822 41.7574429,39.7800577 C42.4594429,39.0262618 42.4051729,37.8545721 41.6332429,37.1642537 C40.8637429,36.4765803 39.6676429,36.5294782 38.962673,37.285919 M46.1827428,21.8979031 C45.1378428,21.900548 44.2927428,22.7307814 44.2951728,23.7546214 L44.2951728,23.8022296 C44.2981428,24.8231602 45.1432428,25.6483683 46.1851728,25.6483683 C47.2303427,25.6483683 48.0751727,24.8205153 48.0751727,23.7969398 L48.0751727,23.7731357 L48.0751727,23.7466867 C48.0727427,22.7231112 47.2249427,21.8979031 46.1827428,21.8979031 M45.3673428,29.9727763 C44.3953428,29.6051355 43.2991429,30.0785723 42.9211429,31.0307355 L42.9235729,31.0307355 C42.5458429,31.9855436 43.0291429,33.0564628 44.0011428,33.427013 C44.2252428,33.5116497 44.4574428,33.5513232 44.6842428,33.5513232 C45.4402428,33.5513232 46.1557428,33.1043354 46.4473428,32.3690538 C46.8226428,31.4168906 46.3393428,30.3430621 45.3673428,29.9727763 M25.7086433,3.8517648 C25.7653433,3.85705459 25.8220433,3.85969949 25.8787433,3.85969949 C26.8453433,3.85969949 27.6715433,3.13499747 27.7606433,2.17225464 C27.8524433,1.15396895 27.0856433,0.254703667 26.0461433,0.164777138 C25.0066433,0.0719412226 24.0886434,0.823356713 23.9941434,1.8416424 C23.9023434,2.85992809 24.6691433,3.75919337 25.7086433,3.8517648 M11.5444437,39.7879924 C10.7101437,39.1717312 9.52754375,39.33307 8.89574376,40.1503434 C8.26934378,40.9676169 8.43404378,42.128727 9.26564375,42.7423434 C9.60854375,42.9962536 10.0081437,43.1176544 10.4050437,43.1176544 C10.9774437,43.1176544 11.5417437,42.8640087 11.9143437,42.3826372 C12.5434437,41.5653638 12.3787437,40.4042536 11.5444437,39.7879924 M3.7576439,27.4997968 C3.56594391,26.4947356 2.57774393,25.8308663 1.55174396,26.018654 C0.525743986,26.2064418 -0.149255996,27.1744744 0.039473999,28.1795356 C0.209843994,29.0682213 1.00364397,29.6897723 1.89734395,29.6897723 C2.01344395,29.6897723 2.12954394,29.6791927 2.24564394,29.6580335 C3.27164391,29.4702457 3.9493439,28.5045935 3.7576439,27.4997968 M18.2674435,43.0676658 C17.2627735,42.7870421 16.2181436,43.360985 15.9343736,44.3425066 C15.6484436,45.3264086 16.2316436,46.3499841 17.2387435,46.6303433 C17.4085735,46.6776869 17.5843435,46.7017555 17.7544435,46.7017555 C18.5776735,46.7017555 19.3339435,46.1674861 19.5715435,45.3528576 C19.8550435,44.3689556 19.2718435,43.3453801 18.2674435,43.0676658 M3.8518739,13.8759278 C4.16264389,14.0637155 4.50527388,14.1536421 4.84574387,14.1536421 C5.47754385,14.1536421 6.09584384,13.8415441 6.45494383,13.2752715 C7.00277381,12.4053646 6.72764382,11.2654136 5.84204385,10.7258544 C4.95374387,10.1886756 3.7873439,10.4587197 3.23924391,11.3262462 C2.69114393,12.1964176 2.96357392,13.3390135 3.8518739,13.8759278 M3.8737439,33.7576252 C2.98517392,34.2971844 2.71517393,35.4397803 3.26624391,36.3070423 C3.6226439,36.8733149 4.24094389,37.182768 4.87274387,37.182768 C5.21267386,37.182768 5.55854385,37.0928415 5.86904384,36.9021443 C6.75437382,36.3625852 7.02734381,35.2228987 6.47654383,34.3527273 C5.92574384,33.4852007 4.75934387,33.2180661 3.8737439,33.7576252 M1.54607396,21.6201888 C1.66244396,21.641348 1.77854395,21.6519276 1.89194395,21.6519276 C2.78564393,21.6519276 3.57944391,21.0277317 3.7495439,20.1364011 C3.9385439,19.1313399 3.26084391,18.1659522 2.23187394,17.9781644 C1.20614397,17.7927571 0.220643994,18.4595358 0.0316439992,19.464597 C-0.157355996,20.4696582 0.520343986,21.435046 1.54607396,21.6201888 M17.7058435,4.60820559 C17.8786435,4.60820559 18.0541435,4.58704641 18.2269435,4.53679335 C19.2310735,4.25643417 19.8118435,3.23285869 19.5256435,2.24895668 C19.2394435,1.26505466 18.1918435,0.696401614 17.1901435,0.976496301 L17.1874435,0.976496301 C16.1857436,1.25711997 15.6025436,2.28334035 15.8887436,3.26459746 C16.1260736,4.07922601 16.8850436,4.60820559 17.7058435,4.60820559 M8.86334377,7.47263001 C8.23154378,6.65800146 8.39624378,5.49689128 9.22784376,4.87772069 C10.0594437,4.26172397 11.2444737,4.42041784 11.8735737,5.23504639 C12.5056437,6.04967494 12.3436437,7.21078512 11.5120437,7.82969122 C11.1691437,8.08360142 10.7695437,8.20500223 10.3699437,8.20500223 C9.80024374,8.20500223 9.23594376,7.95400142 8.86334377,7.47263001" id="Fill-1" fill="#00FF82" mask="url(#mask-2)"></path>
                        </g>
                        <path d="M15.8485136,35.3607243 C15.8485136,35.3607243 21.0743634,33.1062133 25.5363833,32.3767505 C29.5750432,31.716584 32.8690431,31.8824191 32.8690431,31.8824191 L33.7208931,28.840522 C33.7208931,28.840522 27.8940233,29.3269187 22.9049634,31.2383864 C18.2655535,33.0149643 15.8485136,35.3607243 15.8485136,35.3607243 M25.2091433,15.6125942 C29.9292832,18.7282839 23.6139834,26.6836078 19.4343835,31.1450215 L22.9643634,28.5551375 C24.8154833,27.197247 29.8882432,22.0989418 30.2435632,18.9406692 C30.4536232,17.0778676 29.9392732,16.188653 29.9392732,16.188653 L30.7554832,16.8903444 C30.1766032,13.6352685 27.0211133,11.3379102 24.2868234,10.9599543 C17.5422235,10.0281568 13.7611436,14.9556016 12.1354737,17.8919672 C13.0672437,19.7098055 14.1448136,21.6961238 14.1448136,21.6961238 C14.1448136,21.6961238 19.1940835,11.6420735 25.2091433,15.6125942 M31.4755732,19.0967182 C32.1422031,19.4738806 32.4748431,19.9875198 32.4748431,19.9875198 C32.4748431,19.9875198 33.0569631,19.4812863 34.0241031,17.8919672 C34.6607631,25.1791899 23.7090234,29.5287244 23.7090234,29.5287244 C23.7090234,29.5287244 30.7838332,24.3386413 31.4755732,19.0967182" id="Fill-4" fill="#FFFFFF"></path>
                        <g id="Group" transform="translate(56.699998, 18.514285)">
                            <path d="M4.33823336,3.15490473 L3.6095195,5.43469293 L6.0436946,5.43469293 L5.31498074,3.15490473 C5.2737444,3.06557134 5.22943072,3.00006018 5.18327063,2.96015794 C5.13711055,2.92025569 5.08233392,2.90000678 5.02017167,2.90000678 L4.63304243,2.90000678 C4.57088018,2.90000678 4.51671902,2.92025569 4.47055894,2.96015794 C4.42378338,3.00006018 4.3794697,3.06557134 4.33823336,3.15490473 Z M3.45442162,10.2646517 C3.45442162,10.4546341 3.4107234,10.5922075 3.32332698,10.677372 C3.23531509,10.7619409 3.09314203,10.804821 2.8968078,10.804821 L0.618346051,10.804821 C0.422011826,10.804821 0.279838767,10.7619409 0.192442342,10.677372 C0.104430448,10.5922075 0.060732235,10.4546341 0.060732235,10.2646517 L0.060732235,6.30480018 C0.060732235,6.00463998 0.10935419,5.65981308 0.207829036,5.27031948 C0.305688415,4.87963478 0.457708958,4.42522558 0.664506135,3.90530524 L2.01361153,0.500511842 C2.0751583,0.330778395 2.17117128,0.205711644 2.29980405,0.12531159 C2.42905228,0.0455070922 2.59707499,0.00560484326 2.80387217,0.00560484326 L6.97366643,0.00560484326 C7.17000065,0.00560484326 7.33248415,0.0455070922 7.46173238,0.12531159 C7.59098062,0.205711644 7.68637813,0.330778395 7.74854037,0.500511842 L9.0970303,3.90530524 C9.30321201,4.42522558 9.45584802,4.87963478 9.55493833,5.27031948 C9.65279771,5.65981308 9.70203513,6.00463998 9.70203513,6.30480018 L9.70203513,10.2646517 C9.70203513,10.4546341 9.65772145,10.5922075 9.56970956,10.677372 C9.48169766,10.7619409 9.34014007,10.804821 9.14380585,10.804821 L6.80318185,10.804821 C6.59638467,10.804821 6.44374866,10.7619409 6.34588929,10.677372 C6.24802991,10.5922075 6.19817702,10.4546341 6.19817702,10.2646517 L6.19817702,8.16472143 L3.45442162,8.16472143 L3.45442162,10.2646517 Z" id="Fill-6" fill="#FFFFFF"></path>
                            <path d="M16.0411072,10.8046423 L13.7164853,10.8046423 C13.5195356,10.8046423 13.377978,10.7623578 13.2899661,10.6771933 C13.2019543,10.5926244 13.1576406,10.4544554 13.1576406,10.2650686 L13.1576406,0.544999872 C13.1576406,0.355613078 13.2019543,0.218039652 13.2899661,0.132875151 C13.377978,0.0477106493 13.5195356,0.00542617648 13.7164853,0.00542617648 L15.3283955,0.00542617648 C15.5241142,0.00542617648 15.6927524,0.0352039742 15.8318481,0.0953551257 C15.9715593,0.155506277 16.1081932,0.260324125 16.2429806,0.410404226 L19.2501562,3.74015757 L19.2501562,0.544999872 C19.2501562,0.355613078 19.2938544,0.218039652 19.3818663,0.132875151 C19.4692627,0.0477106493 19.6114358,0.00542617648 19.80777,0.00542617648 L22.1323919,0.00542617648 C22.3293416,0.00542617648 22.4708991,0.0477106493 22.5595265,0.132875151 C22.6469229,0.218039652 22.6912366,0.355613078 22.6912366,0.544999872 L22.6912366,10.2650686 C22.6912366,10.4544554 22.6469229,10.5926244 22.5595265,10.6771933 C22.4708991,10.7623578 22.3293416,10.8046423 22.1323919,10.8046423 L19.80777,10.8046423 C19.6114358,10.8046423 19.4692627,10.7623578 19.3818663,10.6771933 C19.2938544,10.5926244 19.2501562,10.4544554 19.2501562,10.2650686 L19.2501562,8.42003626 L16.5993364,5.31480751 L16.5993364,10.2650686 C16.5993364,10.4544554 16.5550228,10.5926244 16.4670109,10.6771933 C16.3796144,10.7623578 16.2374414,10.8046423 16.0411072,10.8046423" id="Fill-9" fill="#FFFFFF"></path>
                            <path d="M31.6502319,10.8046423 L29.1391233,10.8046423 C28.9427891,10.8046423 28.8006161,10.7623578 28.7132196,10.6771933 C28.6245923,10.5926244 28.5815095,10.4544554 28.5815095,10.2650686 L28.5815095,2.90042367 L26.3030478,2.90042367 C26.1060981,2.90042367 25.963925,2.85754364 25.8759131,2.7729747 C25.7885167,2.6878102 25.744203,2.55023677 25.744203,2.36025442 L25.744203,0.544999872 C25.744203,0.355613078 25.7885167,0.218039652 25.8759131,0.132875151 C25.963925,0.0477106493 26.1060981,0.00542617648 26.3030478,0.00542617648 L34.4863075,0.00542617648 C34.6832572,0.00542617648 34.8248148,0.0477106493 34.9128267,0.132875151 C35.0002231,0.218039652 35.0451522,0.355613078 35.0451522,0.544999872 L35.0451522,2.36025442 C35.0451522,2.55023677 35.0002231,2.6878102 34.9128267,2.7729747 C34.8248148,2.85754364 34.6832572,2.90042367 34.4863075,2.90042367 L32.2078457,2.90042367 L32.2078457,10.2650686 C32.2078457,10.4544554 32.1641475,10.5926244 32.0761356,10.6771933 C31.9887392,10.7623578 31.8459507,10.8046423 31.6502319,10.8046423" id="Fill-11" fill="#FFFFFF"></path>
                            <path d="M45.8480275,10.8046423 L38.6556709,10.8046423 C38.4593367,10.8046423 38.3177791,10.7623578 38.2297672,10.6771933 C38.1417553,10.5926244 38.0974416,10.4544554 38.0974416,10.2650686 L38.0974416,0.544999872 C38.0974416,0.355613078 38.1417553,0.218039652 38.2297672,0.132875151 C38.3177791,0.0477106493 38.4593367,0.00542617648 38.6556709,0.00542617648 L45.8480275,0.00542617648 C46.0437462,0.00542617648 46.1865348,0.0477106493 46.2739312,0.132875151 C46.3619431,0.218039652 46.4056413,0.355613078 46.4056413,0.544999872 L46.4056413,2.30010327 C46.4056413,2.49008562 46.3619431,2.6282546 46.2739312,2.71282355 C46.1865348,2.79798805 46.0437462,2.84027252 45.8480275,2.84027252 L41.5699109,2.84027252 L41.5699109,3.99505552 L44.5924732,3.99505552 C44.7888074,3.99505552 44.9309805,4.03793555 45.0183769,4.12250449 C45.1063888,4.20766899 45.1507025,4.34524242 45.1507025,4.53522477 L45.1507025,6.14024807 C45.1507025,6.32963486 45.1063888,6.46780384 45.0183769,6.55237279 C44.9309805,6.63753729 44.7888074,6.67982176 44.5924732,6.67982176 L41.5699109,6.67982176 L41.5699109,7.96979596 L45.8480275,7.96979596 C46.0437462,7.96979596 46.1865348,8.01267599 46.2739312,8.09724494 C46.3619431,8.18240944 46.4056413,8.31998286 46.4056413,8.50936966 L46.4056413,10.2650686 C46.4056413,10.4544554 46.3619431,10.5926244 46.2739312,10.6771933 C46.1865348,10.7623578 46.0437462,10.8046423 45.8480275,10.8046423" id="Fill-13" fill="#FFFFFF"></path>
                            <path d="M52.6680876,10.8046423 L50.3434658,10.8046423 C50.1465161,10.8046423 50.0049585,10.7623578 49.9169466,10.6771933 C49.8289347,10.5926244 49.784621,10.4544554 49.784621,10.2650686 L49.784621,0.544999872 C49.784621,0.355613078 49.8289347,0.218039652 49.9169466,0.132875151 C50.0049585,0.0477106493 50.1465161,0.00542617648 50.3434658,0.00542617648 L51.9553759,0.00542617648 C52.1510947,0.00542617648 52.3197328,0.0352039742 52.4588285,0.0953551257 C52.5985397,0.155506277 52.7351736,0.260324125 52.869961,0.410404226 L55.8771366,3.74015757 L55.8771366,0.544999872 C55.8771366,0.355613078 55.9208349,0.218039652 56.0088467,0.132875151 C56.0962432,0.0477106493 56.2384162,0.00542617648 56.4347505,0.00542617648 L58.7593723,0.00542617648 C58.956322,0.00542617648 59.0978796,0.0477106493 59.1865069,0.132875151 C59.2739034,0.218039652 59.318217,0.355613078 59.318217,0.544999872 L59.318217,10.2650686 C59.318217,10.4544554 59.2739034,10.5926244 59.1865069,10.6771933 C59.0978796,10.7623578 58.956322,10.8046423 58.7593723,10.8046423 L56.4347505,10.8046423 C56.2384162,10.8046423 56.0962432,10.7623578 56.0088467,10.6771933 C55.9208349,10.5926244 55.8771366,10.4544554 55.8771366,10.2650686 L55.8771366,8.42003626 L53.2263169,5.31480751 L53.2263169,10.2650686 C53.2263169,10.4544554 53.1820032,10.5926244 53.0939913,10.6771933 C53.0065949,10.7623578 52.8644218,10.8046423 52.6680876,10.8046423" id="Fill-15" fill="#FFFFFF"></path>
                            <path d="M67.0522468,3.15490473 L66.323533,5.43469293 L68.7577081,5.43469293 L68.0289942,3.15490473 C67.9877579,3.06557134 67.9434442,3.00006018 67.8972841,2.96015794 C67.851124,2.92025569 67.7963474,2.90000678 67.7341851,2.90000678 L67.3470559,2.90000678 C67.2848936,2.90000678 67.2307325,2.92025569 67.1845724,2.96015794 C67.1377968,3.00006018 67.0934832,3.06557134 67.0522468,3.15490473 Z M66.1684351,10.2646517 C66.1684351,10.4546341 66.1247369,10.5922075 66.0373404,10.677372 C65.9493285,10.7619409 65.8071555,10.804821 65.6108213,10.804821 L63.3323595,10.804821 C63.1360253,10.804821 62.9938522,10.7619409 62.9064558,10.677372 C62.8184439,10.5922075 62.7747457,10.4546341 62.7747457,10.2646517 L62.7747457,6.30480018 C62.7747457,6.00463998 62.8233676,5.65981308 62.9218425,5.27031948 C63.0197019,4.87963478 63.1717224,4.42522558 63.3785196,3.90530524 L64.727625,0.500511842 C64.7891718,0.330778395 64.8851847,0.205711644 65.0138175,0.12531159 C65.1430657,0.0455070922 65.3110884,0.00560484326 65.5178856,0.00560484326 L69.6876799,0.00560484326 C69.8840141,0.00560484326 70.0464976,0.0455070922 70.1757458,0.12531159 C70.3049941,0.205711644 70.4003916,0.330778395 70.4625538,0.500511842 L71.8110437,3.90530524 C72.0172255,4.42522558 72.1698615,4.87963478 72.2689518,5.27031948 C72.3668112,5.65981308 72.4160486,6.00463998 72.4160486,6.30480018 L72.4160486,10.2646517 C72.4160486,10.4546341 72.3717349,10.5922075 72.283723,10.677372 C72.1957111,10.7619409 72.0541535,10.804821 71.8578193,10.804821 L69.5171953,10.804821 C69.3103981,10.804821 69.1577621,10.7619409 69.0599027,10.677372 C68.9620434,10.5922075 68.9121905,10.4546341 68.9121905,10.2646517 L68.9121905,8.16472143 L66.1684351,8.16472143 L66.1684351,10.2646517 Z" id="Fill-17" fill="#FFFFFF"></path>
                            <path d="M88.31949,10.8046423 L80.9412622,10.8046423 C80.7443125,10.8046423 80.6027549,10.7623578 80.514743,10.6771933 C80.4273466,10.5926244 80.3830329,10.4544554 80.3830329,10.2650686 L80.3830329,7.68512021 C80.3830329,7.10504871 80.4421178,6.62741284 80.5615186,6.25221259 C80.6803039,5.87760789 80.8477111,5.57030102 81.0649712,5.33029197 C81.2816159,5.08968736 81.5401124,4.90030057 81.8404606,4.76034492 C82.139578,4.61979372 82.4651604,4.50008697 82.8165925,4.40003357 L84.8937963,3.76993537 C85.0587417,3.73003312 85.1701414,3.67047752 85.2273799,3.59007747 C85.2833874,3.51027297 85.3123144,3.39056622 85.3123144,3.22976612 C85.3123144,3.08028157 85.2809256,2.97725039 85.2193788,2.9230548 C85.1572165,2.8676681 85.0488942,2.84027252 84.8937963,2.84027252 L81.5302649,2.84027252 C81.3333152,2.84027252 81.1917576,2.79798805 81.1037457,2.71282355 C81.0157338,2.6282546 80.9720356,2.49008562 80.9720356,2.30010327 L80.9720356,0.544999872 C80.9720356,0.355613078 81.0157338,0.218039652 81.1037457,0.132875151 C81.1917576,0.0477106493 81.3333152,0.00542617648 81.5302649,0.00542617648 L86.1025751,0.00542617648 C86.9808476,0.00542617648 87.6554003,0.218039652 88.1256177,0.643266604 C88.5952196,1.067898 88.8309438,1.68489397 88.8309438,2.49544562 L88.8309438,3.90512657 C88.8309438,4.65493152 88.6142991,5.23023857 88.1797789,5.63045217 C87.7452586,6.03007022 87.1562559,6.34035487 86.4127708,6.56011502 L84.3047937,7.20510212 C84.1496958,7.24440881 84.0438353,7.29026662 83.9872123,7.34029332 C83.9299738,7.39032002 83.9016623,7.49454231 83.9016623,7.65474686 L83.9016623,7.96979596 L88.31949,7.96979596 C88.5152088,7.96979596 88.6579973,8.01267599 88.7453937,8.09724494 C88.8334056,8.18240944 88.8771039,8.31998286 88.8771039,8.50936966 L88.8771039,10.2650686 C88.8771039,10.4544554 88.8334056,10.5926244 88.7453937,10.6771933 C88.6579973,10.7623578 88.5152088,10.8046423 88.31949,10.8046423" id="Fill-20" fill="#FFFFFF"></path>
                            <path d="M98.4254711,9.3198022 C98.4254711,9.50978455 98.3817729,9.64735798 98.293761,9.73192692 C98.2063646,9.81709142 98.0635761,9.85937589 97.8678573,9.85937589 L95.9457514,9.85937589 C95.7488017,9.85937589 95.6066286,9.81709142 95.5192322,9.73192692 C95.4312203,9.64735798 95.3869066,9.50978455 95.3869066,9.3198022 L95.3869066,6.80000495 L92.8610268,6.80000495 C92.6646926,6.80000495 92.5219041,6.75712493 92.4345077,6.67255598 C92.3464958,6.58739148 92.3027976,6.45041361 92.3027976,6.2598357 L92.3027976,4.54999456 C92.3027976,4.36001221 92.3464958,4.22243878 92.4345077,4.13786984 C92.5219041,4.05270533 92.6646926,4.00982531 92.8610268,4.00982531 L95.3869066,4.00982531 L95.3869066,1.49062362 C95.3869066,1.30004571 95.4312203,1.16306784 95.5192322,1.07790334 C95.6066286,0.993334394 95.7488017,0.94985881 95.9457514,0.94985881 L97.8678573,0.94985881 C98.0635761,0.94985881 98.2063646,0.993334394 98.293761,1.07790334 C98.3817729,1.16306784 98.4254711,1.30004571 98.4254711,1.49062362 L98.4254711,4.00982531 L100.951966,4.00982531 C101.148301,4.00982531 101.290474,4.05270533 101.378486,4.13786984 C101.465882,4.22243878 101.510196,4.36001221 101.510196,4.54999456 L101.510196,6.2598357 C101.510196,6.45041361 101.465882,6.58739148 101.378486,6.67255598 C101.290474,6.75712493 101.148301,6.80000495 100.951966,6.80000495 L98.4254711,6.80000495 L98.4254711,9.3198022 Z" id="Fill-22" fill="#00FF82"></path>
                        </g>
                    </g>
                </g>
            </g>
        </g>
    </g>
</svg>